<svg id="cards" xmlns="http://www.w3.org/2000/svg" width="145.08" height="129.324" viewBox="0 0 145.08 129.324">
  <g id="Group_190" data-name="Group 190" transform="translate(0 0)">
    <path id="Path_189" data-name="Path 189" d="M270.584,52.189l-88.855-18.8a7.007,7.007,0,0,0-8.281,5.389L171.76,49.623l102.524,21.7,1.688-10.848A7.007,7.007,0,0,0,270.584,52.189Z" transform="translate(-131.042 -33.234)" fill="#3d4da7"/>
    <path id="Path_190" data-name="Path 190" d="M102.175,175.773a7.074,7.074,0,0,0-8.68-4.91l-16.868,4.683L36.862,167.13l-4.373,20.663L5.164,195.378a7.072,7.072,0,0,0-4.909,8.679l15.4,55.491a7.073,7.073,0,0,0,8.68,4.909l88.331-24.513a7.073,7.073,0,0,0,4.909-8.68l-2.643-9.526,9.907,2.094a7,7,0,0,0,8.281-5.388l6.268-29.618L103.7,181.275Zm10.2,28.2,2.185-10.325a2.884,2.884,0,0,1,3.407-2.217l10.324,2.186a2.883,2.883,0,0,1,2.218,3.407l-2.185,10.325a2.883,2.883,0,0,1-3.407,2.217l-10.325-2.185A2.883,2.883,0,0,1,112.376,203.976ZM6.7,200.915l24.445-6.781,57.677-16.006,6.207-1.724a1.292,1.292,0,0,1,.337-.045,1.333,1.333,0,0,1,1.267.952l.729,2.624,2.283,8.227L8.806,213.37,5.794,202.52A1.322,1.322,0,0,1,6.7,200.915ZM112.035,232.8a1.326,1.326,0,0,1-.907,1.605L22.8,258.917a1.285,1.285,0,0,1-.337.046,1.334,1.334,0,0,1-1.267-.954l-8.982-32.367,90.839-25.21,5.54,19.962Z" transform="translate(0 -135.388)" fill="#3d4da7"/>
    <path id="Path_191" data-name="Path 191" d="M105.017,446.707a2.883,2.883,0,0,0-3.539-2l-10.316,2.864a2.882,2.882,0,0,0-2,3.539l2.862,10.314a2.882,2.882,0,0,0,3.539,2l10.316-2.862a2.883,2.883,0,0,0,2-3.539Z" transform="translate(-67.945 -347.082)" fill="#ffc570"/>
  </g>
</svg>
