<svg id="contract" xmlns="http://www.w3.org/2000/svg" width="108.779" height="121.375" viewBox="0 0 108.779 121.375">
  <g id="Group_192" data-name="Group 192" transform="translate(0)">
    <g id="Group_191" data-name="Group 191">
      <path id="Path_192" data-name="Path 192" d="M164.776,204.741A4.741,4.741,0,0,0,160.035,200H111.2a4.741,4.741,0,0,0,0,9.482h48.835A4.741,4.741,0,0,0,164.776,204.741Z" transform="translate(-87.52 -152.588)" fill="#ffc570"/>
      <path id="Path_193" data-name="Path 193" d="M111.2,280a4.741,4.741,0,1,0,0,9.482h29.659a4.741,4.741,0,1,0,0-9.482Z" transform="translate(-87.52 -213.623)" fill="#ffc570"/>
      <path id="Path_194" data-name="Path 194" d="M61.392,111.893H45.535a9.493,9.493,0,0,1-9.482-9.482V18.965a9.493,9.493,0,0,1,9.482-9.482h58.291a9.493,9.493,0,0,1,9.482,9.482V48.123a4.741,4.741,0,1,0,9.482,0V18.965A18.986,18.986,0,0,0,103.826,0H45.535A18.986,18.986,0,0,0,26.57,18.965v83.446a18.986,18.986,0,0,0,18.965,18.965H61.392a4.741,4.741,0,1,0,0-9.482Z" transform="translate(-26.57)" fill="#3d4da7"/>
      <path id="Path_195" data-name="Path 195" d="M296.66,276.184a14.239,14.239,0,0,0-20.112,0l-26.03,25.972a4.742,4.742,0,0,0-1.188,1.978l-5.669,18.663a4.741,4.741,0,0,0,5.8,5.947l19.137-5.3a4.74,4.74,0,0,0,2.084-1.214L296.66,296.3A14.24,14.24,0,0,0,296.66,276.184Zm-31.792,38.45-9.628,2.667,2.817-9.276L275.622,290.5l6.706,6.706Zm25.09-25.043-.919.917-6.705-6.705.916-.914a4.741,4.741,0,0,1,6.708,6.7Z" transform="translate(-192.041 -207.538)" fill="#3d4da7"/>
      <path id="Path_196" data-name="Path 196" d="M160.035,120H111.2a4.741,4.741,0,1,0,0,9.482h48.835a4.741,4.741,0,0,0,0-9.482Z" transform="translate(-87.52 -91.553)" fill="#fec670"/>
    </g>
  </g>
</svg>
