<svg xmlns="http://www.w3.org/2000/svg" width="159.592" height="161.51" viewBox="0 0 159.592 161.51">
  <g id="hire" transform="translate(-95.404 -78)">
    <g id="Group_216" data-name="Group 216" transform="translate(93.001 78)">
      <path id="Path_210" data-name="Path 210" d="M142.774,112.181a65.732,65.732,0,0,0-92.959-92.96,64.455,64.455,0,0,0-9.888,79.331s4.306,5.268,2.836,6.737L9.228,138.826c-6.675,6.675-9.521,14.617-3.6,20.538l-.941-1.034c5.919,5.92,14,2.941,20.671-3.734L58.821,121.13c1.54-1.54,4.622.939,4.622.939A64.455,64.455,0,0,0,142.774,112.181ZM61.951,100.045a48.569,48.569,0,1,1,68.687,0A48.624,48.624,0,0,1,61.951,100.045Z" transform="translate(-0.001 0)" fill="#3d4da7"/>
      <g id="Group_215" data-name="Group 215" transform="translate(59.362 26.306)">
        <path id="Path_211" data-name="Path 211" d="M120.535,85.9a6.788,6.788,0,0,1-6.245-9.429,42.756,42.756,0,0,1,55.975-22.688,6.784,6.784,0,1,1-5.288,12.5,29.173,29.173,0,0,0-38.191,15.48A6.787,6.787,0,0,1,120.535,85.9Z" transform="translate(-113.752 -50.409)" fill="#ffc570"/>
      </g>
    </g>
  </g>
</svg>
