<svg id="job" xmlns="http://www.w3.org/2000/svg" width="121.371" height="121.375" viewBox="0 0 121.371 121.375">
  <g id="Group_194" data-name="Group 194" transform="translate(0)">
    <g id="Group_193" data-name="Group 193">
      <path id="Path_197" data-name="Path 197" d="M98.15,35.263a2.371,2.371,0,0,0,2.371-2.371V7.112A7.12,7.12,0,0,0,93.409,0H7.119A7.12,7.12,0,0,0,.007,7.112V114.264a7.12,7.12,0,0,0,7.112,7.112h86.29a7.12,7.12,0,0,0,7.112-7.112V96.8a2.371,2.371,0,1,0-4.741,0v17.465a2.373,2.373,0,0,1-2.371,2.371H7.119a2.373,2.373,0,0,1-2.371-2.371V7.112A2.373,2.373,0,0,1,7.119,4.741h86.29A2.373,2.373,0,0,1,95.78,7.112v25.78A2.371,2.371,0,0,0,98.15,35.263Z" transform="translate(-0.007)" fill="#3d4da7"/>
    </g>
  </g>
  <g id="Group_196" data-name="Group 196" transform="translate(28.447 12.801)">
    <g id="Group_195" data-name="Group 195">
      <path id="Path_198" data-name="Path 198" d="M141.817,54a21.8,21.8,0,0,0-14.963,37.662,2.345,2.345,0,0,0,.255.237,21.769,21.769,0,0,0,29.416,0,2.367,2.367,0,0,0,.255-.237A21.8,21.8,0,0,0,141.817,54Zm0,38.878a16.977,16.977,0,0,1-10.31-3.477,11.853,11.853,0,0,1,20.62,0A16.978,16.978,0,0,1,141.817,92.878Zm-3.793-18.017V73.321a3.793,3.793,0,1,1,7.586,0v1.541a3.793,3.793,0,1,1-7.586,0Zm17.528,11.067a16.446,16.446,0,0,0-6.985-5.855,8.489,8.489,0,0,0,1.783-5.212V73.321a8.534,8.534,0,1,0-17.068,0v1.541a8.489,8.489,0,0,0,1.783,5.212,16.446,16.446,0,0,0-6.985,5.855,17.068,17.068,0,1,1,27.471,0Z" transform="translate(-120.007 -54)" fill="#3d4da7"/>
    </g>
  </g>
  <g id="Group_198" data-name="Group 198" transform="translate(47.886 103.833)">
    <g id="Group_197" data-name="Group 197">
      <path id="Path_199" data-name="Path 199" d="M217.179,438h-12.8a2.371,2.371,0,1,0,0,4.741h12.8a2.371,2.371,0,0,0,0-4.741Z" transform="translate(-202.007 -438)" fill="#ffc570"/>
    </g>
  </g>
  <g id="Group_200" data-name="Group 200" transform="translate(27.025 90.558)">
    <g id="Group_199" data-name="Group 199">
      <path id="Path_200" data-name="Path 200" d="M150.04,382H116.378a2.371,2.371,0,1,0,0,4.741H150.04a2.371,2.371,0,1,0,0-4.741Z" transform="translate(-114.007 -382)" fill="#ffc570"/>
    </g>
  </g>
  <g id="Group_202" data-name="Group 202" transform="translate(27.025 77.282)">
    <g id="Group_201" data-name="Group 201">
      <path id="Path_201" data-name="Path 201" d="M150.04,326H116.378a2.371,2.371,0,1,0,0,4.741H150.04a2.371,2.371,0,1,0,0-4.741Z" transform="translate(-114.007 -326)" fill="#ffc570"/>
    </g>
  </g>
  <g id="Group_204" data-name="Group 204" transform="translate(16.898 64.007)">
    <g id="Group_203" data-name="Group 203">
      <path id="Path_202" data-name="Path 202" d="M75.336,270.695a2.369,2.369,0,1,0,.695,1.676A2.389,2.389,0,0,0,75.336,270.695Z" transform="translate(-71.287 -270)" fill="#3d4da7"/>
    </g>
  </g>
  <g id="Group_206" data-name="Group 206" transform="translate(16.898 77.282)">
    <g id="Group_205" data-name="Group 205">
      <path id="Path_203" data-name="Path 203" d="M75.336,326.695a2.369,2.369,0,1,0,.695,1.676A2.393,2.393,0,0,0,75.336,326.695Z" transform="translate(-71.287 -326)" fill="#3d4da7"/>
    </g>
  </g>
  <g id="Group_208" data-name="Group 208" transform="translate(16.898 90.558)">
    <g id="Group_207" data-name="Group 207">
      <path id="Path_204" data-name="Path 204" d="M75.336,382.695a2.369,2.369,0,1,0,.695,1.676A2.393,2.393,0,0,0,75.336,382.695Z" transform="translate(-71.287 -382)" fill="#3d4da7"/>
    </g>
  </g>
  <g id="Group_210" data-name="Group 210" transform="translate(27.025 64.007)">
    <g id="Group_209" data-name="Group 209">
      <path id="Path_205" data-name="Path 205" d="M150.04,270H116.378a2.371,2.371,0,1,0,0,4.741H150.04a2.371,2.371,0,1,0,0-4.741Z" transform="translate(-114.007 -270)" fill="#ffc570"/>
    </g>
  </g>
  <g id="Group_212" data-name="Group 212" transform="translate(70.545 29.556)">
    <g id="Group_211" data-name="Group 211">
      <path id="Path_206" data-name="Path 206" d="M343.44,126.013a9.956,9.956,0,0,0-13.6,3.644l-29.832,51.671a2.375,2.375,0,0,0-.3.922l-2.1,18.809a2.371,2.371,0,0,0,3.762,2.172L316.6,192.009a2.367,2.367,0,0,0,.647-.724l29.832-51.671A9.968,9.968,0,0,0,343.44,126.013ZM302.917,196.2l1.1-9.822,6.861,3.961Zm11.415-9.34-9.033-5.215,23.94-41.464,9.033,5.215Zm28.647-49.618-2.337,4.047-9.033-5.215,2.337-4.047a5.215,5.215,0,0,1,9.033,5.215Z" transform="translate(-297.589 -124.675)" fill="#3d4da7"/>
    </g>
  </g>
</svg>
