<svg xmlns="http://www.w3.org/2000/svg" width="66.967" height="63.383" viewBox="0 0 66.967 63.383">
  <path id="Path_122" data-name="Path 122" d="M5587.16-11781.33c-9.064-8.437-8.542-9.415-8.542-11.944a9.472,9.472,0,0,1,1.4-4.651,66.131,66.131,0,0,1,11.084-13.533,71.226,71.226,0,0,1,14.959-9.821,20.058,20.058,0,0,1,6.224-1.144c3.194,0,3.386.361,11.439,9.016s20.771,25.6,20.771,25.6,5.253,7.573-7.331,19.669c-4.971,4.777-9.492,7.125-13.44,8.3-5.294,1.585-8.846.31-8.846.31S5596.225-11772.894,5587.16-11781.33Z" transform="translate(-5578.613 11822.424)" fill="#ff6683"/>
</svg>
